<svg width="360" height="319" viewBox="0 0 360 319" fill="none" xmlns="http://www.w3.org/2000/svg">
<g clip-path="url(#clip0_12_65)">
<rect width="360" height="319" fill="#6825E2"/>
<circle cx="258.185" cy="30.8213" r="19.4879" fill="#5F1DD8"/>
<path d="M322.33 212.092C326.699 210.021 331.985 211.873 333.424 216.489C334.985 221.493 335.913 226.685 336.176 231.944C336.586 240.125 335.38 248.306 332.628 256.021C329.876 263.736 325.631 270.833 320.136 276.907C314.641 282.982 308.003 287.914 300.602 291.423C293.2 294.932 285.18 296.949 277 297.359C268.819 297.769 260.637 296.563 252.923 293.811C245.208 291.059 238.111 286.814 232.036 281.319C228.132 277.786 224.699 273.782 221.812 269.406C219.15 265.37 221.062 260.106 225.43 258.034L232.154 254.846C236.523 252.775 241.674 254.728 244.701 258.498C245.94 260.039 247.301 261.484 248.774 262.817C252.418 266.114 256.677 268.66 261.306 270.312C265.935 271.963 270.843 272.687 275.752 272.441C280.66 272.195 285.472 270.985 289.913 268.879C294.354 266.774 298.337 263.814 301.634 260.17C304.931 256.525 307.477 252.267 309.129 247.638C310.78 243.009 311.504 238.1 311.258 233.192C311.158 231.208 310.902 229.24 310.492 227.305C309.489 222.576 311.238 217.351 315.607 215.28L322.33 212.092Z" fill="#793DE5"/>
<path d="M94.0468 20.0342C94.0468 58.3769 62.9639 89.4598 24.6212 89.4598C-13.7215 89.4598 -44.8044 58.3769 -44.8044 20.0342C-44.8044 -18.3086 -13.7215 -49.3915 24.6212 -49.3915C62.9639 -49.3915 94.0468 -18.3086 94.0468 20.0342ZM-18.4227 20.0342C-18.4227 43.8067 0.848711 63.0781 24.6212 63.0781C48.3937 63.0781 67.6651 43.8067 67.6651 20.0342C67.6651 -3.73832 48.3937 -23.0097 24.6212 -23.0097C0.848711 -23.0097 -18.4227 -3.73832 -18.4227 20.0342Z" fill="#793DE5"/>
<circle r="31.6678" transform="matrix(1 0 0 -1 48.887 292.053)" fill="#5F1DD8"/>
<circle r="17.5" transform="matrix(1 0 0 -1 116.65 233.488)" fill="#5F1DD8"/>
<circle r="14.6159" transform="matrix(1 0 0 -1 356.962 131.653)" fill="#5F1DD8"/>
<circle r="12.5" transform="matrix(1 0 0 -1 17.2191 209.566)" fill="#5F1DD8"/>
<circle cx="210.872" cy="71.7692" r="9.74395" fill="#5F1DD8"/>
<circle cx="125.203" cy="46.5817" r="12.1799" fill="#5F1DD8"/>
<rect x="53.5989" y="105.133" width="252.802" height="94.7809" fill="#14062D"/>
<rect x="45.1875" y="119.843" width="261.559" height="92.5025" transform="rotate(-5.85015 45.1875 119.843)" fill="#6825E2"/>
<path d="M75.8628 156.157L70.2509 142.879L70.1434 142.89C70.1928 143.215 70.2673 143.707 70.3669 144.365C70.4737 145.014 70.581 145.707 70.6888 146.445C70.7966 147.183 70.8811 147.851 70.9424 148.448L71.7751 156.576L68.4643 156.915L66.6739 139.441L71.7178 138.924L77.2225 151.863L77.2942 151.856L80.3115 138.044L85.3554 137.527L87.1459 155.001L83.6916 155.355L82.8442 147.084C82.7878 146.534 82.7309 145.9 82.6734 145.181C82.6238 144.461 82.5819 143.777 82.5476 143.129C82.5125 142.472 82.4862 141.979 82.4687 141.651L82.3611 141.662L79.2573 155.809L75.8628 156.157ZM93.5457 140.842L94.9149 154.205L91.2694 154.579L89.9003 141.216L93.5457 140.842ZM91.1926 135.793C91.7344 135.738 92.2136 135.818 92.6302 136.033C93.0459 136.24 93.2889 136.686 93.3591 137.371C93.4285 138.048 93.2815 138.538 92.918 138.841C92.5537 139.136 92.1006 139.312 91.5587 139.367C91.0089 139.423 90.5258 139.344 90.1092 139.129C89.6998 138.905 89.4604 138.455 89.391 137.778C89.3207 137.092 89.4642 136.607 89.8214 136.32C90.1857 136.025 90.6428 135.85 91.1926 135.793ZM104.202 153.495C102.88 153.631 101.728 153.507 100.746 153.124C99.7644 152.734 98.9785 152.058 98.3887 151.095C97.799 150.133 97.4233 148.863 97.2616 147.286C97.0942 145.652 97.2328 144.293 97.6773 143.209C98.1289 142.116 98.8199 141.276 99.7502 140.69C100.688 140.102 101.807 139.742 103.106 139.609C104.03 139.514 104.836 139.524 105.524 139.639C106.22 139.745 106.831 139.896 107.358 140.091L106.572 143.022C105.974 142.85 105.421 142.717 104.912 142.625C104.403 142.524 103.901 142.499 103.407 142.549C102.77 142.615 102.255 142.82 101.864 143.166C101.472 143.505 101.203 143.983 101.057 144.602C100.911 145.221 100.884 145.98 100.976 146.881C101.067 147.765 101.254 148.487 101.536 149.046C101.819 149.605 102.186 150.006 102.638 150.249C103.089 150.485 103.617 150.572 104.223 150.51C104.98 150.432 105.643 150.264 106.212 150.004C106.78 149.736 107.325 149.391 107.845 148.967L108.165 152.087C107.643 152.494 107.083 152.805 106.485 153.02C105.896 153.241 105.135 153.399 104.202 153.495ZM117.413 138.143C117.596 138.124 117.808 138.115 118.05 138.114C118.299 138.105 118.5 138.108 118.655 138.125L118.73 141.571C118.607 141.544 118.432 141.533 118.208 141.54C117.99 141.538 117.802 141.546 117.642 141.562C117.172 141.61 116.72 141.717 116.286 141.882C115.86 142.046 115.486 142.282 115.163 142.589C114.839 142.888 114.596 143.267 114.434 143.726C114.279 144.177 114.234 144.717 114.298 145.347L114.995 152.148L111.349 152.521L109.98 139.158L112.741 138.876L113.509 141.067L113.689 141.049C113.905 140.568 114.189 140.12 114.541 139.706C114.901 139.282 115.32 138.933 115.799 138.659C116.285 138.376 116.823 138.204 117.413 138.143ZM133.922 143.433C134.036 144.548 133.986 145.552 133.771 146.443C133.564 147.334 133.205 148.108 132.692 148.764C132.187 149.412 131.548 149.928 130.774 150.313C130.008 150.698 129.123 150.942 128.119 151.044C127.179 151.141 126.299 151.078 125.479 150.856C124.667 150.633 123.94 150.257 123.298 149.727C122.663 149.188 122.142 148.505 121.735 147.677C121.336 146.848 121.08 145.876 120.965 144.76C120.813 143.278 120.948 141.996 121.368 140.914C121.789 139.833 122.458 138.975 123.375 138.342C124.293 137.708 125.425 137.322 126.771 137.184C128.022 137.056 129.157 137.21 130.176 137.645C131.203 138.079 132.044 138.782 132.699 139.753C133.362 140.724 133.77 141.951 133.922 143.433ZM124.682 144.379C124.772 145.256 124.943 145.983 125.196 146.561C125.448 147.139 125.793 147.559 126.231 147.82C126.668 148.081 127.213 148.178 127.867 148.111C128.512 148.045 129.019 147.84 129.386 147.497C129.761 147.152 130.01 146.672 130.132 146.055C130.262 145.438 130.282 144.691 130.192 143.815C130.102 142.93 129.931 142.207 129.68 141.645C129.437 141.074 129.096 140.662 128.66 140.409C128.223 140.156 127.678 140.063 127.025 140.13C126.061 140.228 125.393 140.631 125.023 141.337C124.66 142.043 124.547 143.057 124.682 144.379ZM135.918 144.883L135.612 141.895L142.03 141.237L142.337 144.225L135.918 144.883ZM147.785 135.285L149.155 148.648L145.509 149.021L144.14 135.658L147.785 135.285ZM145.432 130.236C145.974 130.18 146.453 130.26 146.87 130.475C147.286 130.682 147.529 131.128 147.599 131.813C147.668 132.491 147.521 132.981 147.158 133.284C146.793 133.579 146.34 133.754 145.799 133.81C145.249 133.866 144.766 133.787 144.349 133.572C143.94 133.348 143.7 132.897 143.631 132.22C143.561 131.535 143.704 131.049 144.061 130.763C144.425 130.468 144.883 130.292 145.432 130.236ZM159.186 133.863C160.613 133.717 161.8 133.99 162.749 134.682C163.696 135.366 164.258 136.564 164.433 138.277L165.326 146.991L161.681 147.364L160.881 139.559C160.783 138.603 160.534 137.9 160.133 137.45C159.741 136.999 159.174 136.811 158.433 136.887C157.318 137.002 156.595 137.458 156.267 138.257C155.938 139.055 155.847 140.168 155.993 141.594L156.637 147.881L152.991 148.254L151.622 134.892L154.407 134.606L155.072 136.265L155.275 136.245C155.515 135.753 155.831 135.342 156.224 135.012C156.625 134.681 157.077 134.421 157.582 134.233C158.094 134.043 158.628 133.92 159.186 133.863ZM174.436 143.364C174.834 143.323 175.216 143.244 175.583 143.126C175.957 143.007 176.325 142.868 176.688 142.71L176.966 145.424C176.593 145.639 176.122 145.832 175.552 146.003C174.99 146.182 174.367 146.306 173.681 146.376C172.885 146.458 172.154 146.404 171.491 146.214C170.834 146.016 170.29 145.616 169.858 145.017C169.434 144.408 169.163 143.53 169.045 142.382L168.385 135.94L166.64 136.119L166.482 134.577L168.365 133.152L169.128 130.224L171.458 129.985L171.75 132.829L175.491 132.446L175.771 135.183L172.03 135.567L172.69 142.009C172.743 142.519 172.925 142.887 173.238 143.112C173.558 143.329 173.958 143.413 174.436 143.364ZM183.832 131.338C185.067 131.211 186.155 131.341 187.097 131.728C188.037 132.107 188.797 132.721 189.375 133.572C189.953 134.423 190.309 135.497 190.442 136.796L190.623 138.565L182.006 139.448C182.151 140.472 182.541 141.249 183.175 141.78C183.816 142.302 184.651 142.511 185.679 142.405C186.531 142.318 187.303 142.15 187.994 141.902C188.685 141.654 189.388 141.317 190.101 140.889L190.39 143.71C189.762 144.104 189.093 144.415 188.383 144.64C187.682 144.865 186.817 145.03 185.789 145.136C184.451 145.273 183.238 145.147 182.151 144.759C181.073 144.371 180.187 143.701 179.494 142.749C178.808 141.797 178.387 140.552 178.229 139.014C178.069 137.452 178.199 136.126 178.619 135.036C179.046 133.938 179.707 133.081 180.602 132.466C181.496 131.843 182.573 131.467 183.832 131.338ZM184.122 133.929C183.412 134.002 182.846 134.289 182.422 134.792C182.007 135.293 181.813 136.034 181.841 137.013L186.956 136.489C186.893 135.948 186.744 135.476 186.509 135.073C186.283 134.67 185.97 134.364 185.57 134.155C185.178 133.946 184.695 133.87 184.122 133.929ZM200.243 129.656C200.426 129.638 200.638 129.628 200.88 129.627C201.128 129.618 201.33 129.622 201.485 129.638L201.56 133.084C201.436 133.057 201.262 133.046 201.037 133.053C200.82 133.052 200.631 133.059 200.472 133.075C200.002 133.123 199.55 133.23 199.116 133.395C198.69 133.56 198.315 133.795 197.993 134.102C197.669 134.401 197.426 134.78 197.264 135.24C197.109 135.69 197.063 136.23 197.128 136.86L197.825 143.661L194.179 144.034L192.81 130.672L195.571 130.389L196.339 132.581L196.518 132.562C196.735 132.081 197.019 131.633 197.371 131.219C197.73 130.796 198.149 130.447 198.629 130.172C199.115 129.889 199.653 129.717 200.243 129.656ZM209.372 128.697C211.165 128.513 212.579 128.763 213.615 129.446C214.651 130.129 215.251 131.267 215.414 132.861L216.327 141.765L213.781 142.026L212.89 140.281L212.794 140.291C212.461 140.809 212.11 141.239 211.743 141.583C211.375 141.926 210.94 142.196 210.437 142.393C209.934 142.589 209.311 142.725 208.57 142.801C207.782 142.882 207.057 142.803 206.396 142.565C205.744 142.326 205.206 141.914 204.784 141.329C204.361 140.737 204.1 139.958 204.001 138.994C203.856 137.576 204.247 136.481 205.175 135.709C206.101 134.93 207.557 134.402 209.542 134.127L211.853 133.817L211.793 133.232C211.721 132.53 211.485 132.035 211.085 131.746C210.685 131.457 210.158 131.346 209.505 131.413C208.86 131.479 208.236 131.636 207.633 131.882C207.03 132.129 206.432 132.424 205.839 132.767L204.38 130.428C205.051 129.981 205.813 129.605 206.668 129.3C207.53 128.994 208.431 128.793 209.372 128.697ZM212.071 135.945L210.665 136.137C209.489 136.29 208.69 136.585 208.268 137.023C207.854 137.46 207.68 137.997 207.745 138.635C207.802 139.192 208.006 139.574 208.357 139.78C208.708 139.977 209.146 140.049 209.672 139.995C210.453 139.915 211.086 139.617 211.573 139.1C212.067 138.582 212.271 137.897 212.184 137.044L212.071 135.945ZM225.543 141.062C224.22 141.198 223.068 141.074 222.087 140.692C221.105 140.301 220.319 139.625 219.729 138.663C219.139 137.701 218.764 136.431 218.602 134.853C218.434 133.219 218.573 131.861 219.018 130.776C219.469 129.683 220.16 128.844 221.09 128.257C222.029 127.67 223.147 127.31 224.446 127.177C225.37 127.082 226.177 127.092 226.865 127.207C227.56 127.312 228.171 127.463 228.699 127.659L227.912 130.59C227.314 130.417 226.761 130.285 226.253 130.192C225.743 130.091 225.241 130.066 224.747 130.117C224.11 130.182 223.595 130.388 223.204 130.734C222.812 131.072 222.543 131.55 222.397 132.169C222.251 132.788 222.224 133.548 222.317 134.448C222.407 135.333 222.594 136.054 222.877 136.613C223.159 137.172 223.526 137.573 223.978 137.817C224.429 138.052 224.957 138.139 225.563 138.077C226.32 138 226.983 137.831 227.552 137.571C228.121 137.304 228.665 136.958 229.185 136.534L229.505 139.654C228.983 140.062 228.423 140.373 227.825 140.587C227.236 140.808 226.475 140.967 225.543 141.062ZM238.046 136.846C238.444 136.806 238.827 136.726 239.193 136.608C239.568 136.489 239.936 136.351 240.298 136.193L240.576 138.906C240.204 139.121 239.732 139.315 239.162 139.486C238.6 139.664 237.977 139.788 237.292 139.859C236.495 139.94 235.765 139.886 235.101 139.697C234.445 139.498 233.901 139.099 233.469 138.499C233.044 137.89 232.773 137.012 232.655 135.865L231.995 129.422L230.25 129.601L230.092 128.059L231.975 126.635L232.738 123.706L235.069 123.467L235.36 126.312L239.101 125.929L239.382 128.666L235.641 129.049L236.301 135.491C236.353 136.001 236.536 136.369 236.849 136.595C237.169 136.811 237.568 136.895 238.046 136.846ZM245.604 125.262L246.973 138.625L243.327 138.999L241.958 125.636L245.604 125.262ZM243.25 120.213C243.792 120.158 244.271 120.238 244.688 120.453C245.104 120.66 245.347 121.106 245.417 121.791C245.486 122.468 245.339 122.958 244.976 123.261C244.611 123.556 244.158 123.732 243.617 123.787C243.067 123.843 242.584 123.764 242.167 123.549C241.758 123.325 241.518 122.875 241.449 122.198C241.379 121.512 241.522 121.027 241.879 120.74C242.243 120.445 242.701 120.27 243.25 120.213ZM262.266 130.282C262.38 131.398 262.33 132.402 262.115 133.293C261.909 134.184 261.549 134.958 261.037 135.614C260.531 136.262 259.892 136.778 259.118 137.163C258.352 137.548 257.467 137.791 256.463 137.894C255.523 137.991 254.643 137.928 253.823 137.706C253.011 137.483 252.284 137.107 251.642 136.577C251.007 136.038 250.486 135.354 250.079 134.526C249.681 133.698 249.424 132.726 249.31 131.61C249.158 130.128 249.292 128.846 249.713 127.764C250.133 126.682 250.802 125.825 251.72 125.191C252.637 124.558 253.769 124.172 255.116 124.034C256.367 123.906 257.502 124.059 258.521 124.494C259.547 124.929 260.388 125.632 261.044 126.603C261.707 127.574 262.114 128.8 262.266 130.282ZM253.027 131.229C253.117 132.106 253.288 132.833 253.54 133.411C253.793 133.989 254.138 134.409 254.575 134.67C255.012 134.931 255.558 135.028 256.211 134.961C256.857 134.895 257.363 134.69 257.73 134.346C258.106 134.002 258.354 133.522 258.477 132.905C258.607 132.288 258.627 131.541 258.537 130.665C258.446 129.78 258.275 129.057 258.025 128.495C257.781 127.924 257.441 127.512 257.004 127.259C256.568 127.005 256.023 126.912 255.369 126.979C254.405 127.078 253.738 127.481 253.367 128.187C253.005 128.892 252.891 129.906 253.027 131.229ZM272.16 122.288C273.586 122.142 274.774 122.414 275.722 123.106C276.67 123.79 277.231 124.989 277.407 126.702L278.3 135.415L274.654 135.789L273.855 127.984C273.757 127.028 273.507 126.325 273.107 125.874C272.715 125.423 272.148 125.236 271.407 125.312C270.291 125.426 269.569 125.883 269.24 126.681C268.911 127.48 268.82 128.592 268.966 130.019L269.61 136.306L265.965 136.679L264.596 123.316L267.381 123.031L268.046 124.69L268.249 124.669C268.489 124.178 268.805 123.767 269.198 123.437C269.599 123.106 270.051 122.846 270.555 122.657C271.067 122.468 271.602 122.345 272.16 122.288ZM290.969 130.107C291.062 131.016 290.926 131.807 290.56 132.48C290.201 133.145 289.616 133.684 288.805 134.097C287.993 134.503 286.958 134.77 285.699 134.899C284.767 134.994 283.96 135.017 283.278 134.966C282.604 134.914 281.915 134.783 281.209 134.574L280.9 131.562C281.659 131.814 282.463 132.005 283.314 132.136C284.172 132.257 284.916 132.286 285.545 132.221C286.254 132.148 286.75 131.993 287.031 131.755C287.32 131.508 287.447 131.213 287.412 130.87C287.389 130.647 287.305 130.455 287.159 130.292C287.021 130.121 286.737 129.945 286.308 129.764C285.878 129.574 285.21 129.341 284.304 129.063C283.431 128.798 282.706 128.514 282.127 128.211C281.556 127.907 281.115 127.526 280.802 127.067C280.496 126.599 280.305 125.986 280.227 125.229C280.101 123.994 280.484 123.017 281.376 122.298C282.276 121.569 283.53 121.123 285.14 120.958C285.969 120.873 286.766 120.876 287.532 120.966C288.306 121.056 289.111 121.243 289.945 121.528L289.115 124.27C288.424 124.051 287.775 123.88 287.166 123.758C286.566 123.634 285.963 123.603 285.357 123.665C284.823 123.72 284.428 123.833 284.172 124.004C283.916 124.175 283.803 124.408 283.833 124.703C283.855 124.918 283.942 125.102 284.095 125.256C284.255 125.409 284.546 125.568 284.965 125.734C285.392 125.892 286.012 126.09 286.826 126.329C287.615 126.562 288.305 126.821 288.898 127.107C289.49 127.384 289.963 127.759 290.318 128.23C290.671 128.693 290.888 129.318 290.969 130.107ZM111.827 168.739C112.768 168.642 113.619 168.704 114.383 168.924C115.146 169.144 115.768 169.515 116.248 170.037C116.736 170.559 117.022 171.226 117.105 172.039C117.22 173.162 116.983 174.141 116.392 174.974C115.809 175.807 115.049 176.561 114.111 177.237L117.845 180.2C118.123 179.616 118.347 179.005 118.515 178.368C118.691 177.73 118.835 177.091 118.946 176.452L122.747 176.062C122.594 177.004 122.332 178.021 121.961 179.114C121.597 180.198 121.095 181.236 120.456 182.227L124.413 185.361L119.907 185.822L118.394 184.613C117.957 184.987 117.48 185.322 116.963 185.617C116.453 185.91 115.898 186.153 115.298 186.343C114.705 186.532 114.07 186.662 113.393 186.731C112.07 186.867 110.914 186.776 109.923 186.459C108.932 186.142 108.148 185.638 107.57 184.949C106.991 184.251 106.651 183.408 106.55 182.42C106.465 181.591 106.52 180.869 106.715 180.253C106.908 179.63 107.221 179.07 107.654 178.575C108.085 178.072 108.616 177.595 109.246 177.144C108.773 176.693 108.387 176.265 108.088 175.861C107.797 175.456 107.574 175.048 107.42 174.637C107.272 174.218 107.174 173.773 107.126 173.303C107.041 172.474 107.183 171.739 107.552 171.097C107.928 170.447 108.482 169.919 109.213 169.514C109.952 169.1 110.823 168.842 111.827 168.739ZM111.597 179.101C111.318 179.363 111.075 179.629 110.869 179.9C110.672 180.17 110.527 180.451 110.436 180.742C110.345 181.033 110.317 181.346 110.351 181.68C110.423 182.382 110.742 182.904 111.309 183.249C111.876 183.594 112.55 183.726 113.331 183.646C113.857 183.592 114.34 183.478 114.781 183.304C115.222 183.13 115.618 182.908 115.969 182.639L111.597 179.101ZM112.093 171.562C111.686 171.604 111.306 171.747 110.953 171.993C110.608 172.237 110.464 172.643 110.522 173.208C110.563 173.607 110.706 173.987 110.953 174.348C111.198 174.701 111.512 175.056 111.895 175.411C112.542 174.966 113.029 174.538 113.358 174.126C113.685 173.706 113.824 173.253 113.774 172.767C113.724 172.28 113.521 171.951 113.165 171.778C112.817 171.596 112.459 171.524 112.093 171.562ZM143.668 183.388L141.975 179.358L135.604 180.011L134.763 184.3L130.771 184.709L135.141 166.531L139.671 166.067L147.66 182.979L143.668 183.388ZM140.772 176.341L139.089 172.407C138.981 172.144 138.838 171.809 138.659 171.4C138.488 170.983 138.312 170.562 138.131 170.138C137.958 169.705 137.815 169.329 137.702 169.01C137.656 169.345 137.586 169.763 137.492 170.264C137.406 170.756 137.321 171.224 137.237 171.667C137.154 172.11 137.094 172.426 137.057 172.615L136.218 176.808L140.772 176.341ZM155.779 168.39C157.205 168.244 158.393 168.517 159.341 169.209C160.289 169.893 160.851 171.091 161.026 172.804L161.919 181.518L158.274 181.891L157.474 174.086C157.376 173.13 157.127 172.427 156.726 171.977C156.334 171.526 155.767 171.338 155.026 171.414C153.911 171.529 153.188 171.985 152.86 172.784C152.531 173.582 152.439 174.695 152.586 176.121L153.23 182.408L149.584 182.782L148.215 169.419L151 169.133L151.665 170.792L151.868 170.772C152.108 170.28 152.424 169.869 152.817 169.539C153.218 169.208 153.67 168.948 154.174 168.76C154.686 168.571 155.221 168.447 155.779 168.39ZM167.948 167.397L169.318 180.76L165.672 181.133L164.303 167.77L167.948 167.397ZM165.595 162.348C166.137 162.292 166.616 162.372 167.033 162.587C167.449 162.794 167.692 163.24 167.762 163.926C167.831 164.603 167.684 165.093 167.321 165.396C166.956 165.691 166.503 165.866 165.961 165.922C165.412 165.978 164.928 165.899 164.512 165.684C164.102 165.46 163.863 165.009 163.794 164.332C163.723 163.647 163.867 163.161 164.224 162.875C164.588 162.58 165.045 162.404 165.595 162.348ZM187.453 165.145C188.967 164.99 190.15 165.263 191.003 165.965C191.863 166.658 192.381 167.861 192.557 169.574L193.449 178.287L189.792 178.662L188.992 170.857C188.894 169.901 188.657 169.196 188.281 168.744C187.904 168.291 187.373 168.1 186.688 168.17C185.724 168.269 185.074 168.686 184.739 169.421C184.402 170.148 184.3 171.153 184.432 172.435L185.119 179.141L181.473 179.514L180.673 171.709C180.608 171.072 180.482 170.545 180.294 170.13C180.107 169.714 179.854 169.414 179.538 169.229C179.221 169.044 178.831 168.975 178.369 169.023C177.692 169.092 177.175 169.318 176.82 169.701C176.472 170.075 176.248 170.601 176.149 171.279C176.056 171.949 176.058 172.758 176.156 173.706L176.8 179.993L173.154 180.367L171.785 167.004L174.57 166.718L175.235 168.377L175.438 168.357C175.662 167.867 175.962 167.458 176.339 167.129C176.724 166.8 177.157 166.542 177.637 166.356C178.117 166.17 178.612 166.051 179.122 165.998C180.102 165.898 180.947 165.972 181.657 166.222C182.375 166.47 182.952 166.91 183.387 167.542L183.709 167.509C184.038 166.783 184.548 166.228 185.242 165.842C185.943 165.457 186.68 165.224 187.453 165.145ZM201.279 163.704C203.072 163.52 204.487 163.77 205.523 164.453C206.559 165.136 207.159 166.274 207.322 167.868L208.234 176.772L205.689 177.033L204.797 175.289L204.702 175.298C204.368 175.816 204.018 176.246 203.65 176.59C203.283 176.933 202.848 177.203 202.344 177.4C201.841 177.596 201.219 177.733 200.478 177.809C199.689 177.889 198.964 177.811 198.304 177.572C197.651 177.333 197.114 176.921 196.692 176.336C196.269 175.744 196.008 174.965 195.909 174.001C195.764 172.583 196.155 171.488 197.082 170.717C198.009 169.937 199.464 169.41 201.449 169.134L203.761 168.824L203.701 168.239C203.629 167.538 203.393 167.042 202.993 166.753C202.593 166.464 202.066 166.353 201.413 166.42C200.767 166.486 200.143 166.643 199.54 166.89C198.938 167.137 198.34 167.431 197.747 167.774L196.287 165.435C196.958 164.988 197.721 164.612 198.575 164.307C199.438 164.001 200.339 163.8 201.279 163.704ZM203.979 170.952L202.573 171.144C201.397 171.297 200.598 171.592 200.176 172.03C199.762 172.467 199.587 173.004 199.652 173.642C199.71 174.199 199.914 174.581 200.265 174.787C200.615 174.984 201.053 175.056 201.579 175.002C202.36 174.922 202.994 174.624 203.481 174.107C203.975 173.589 204.179 172.904 204.091 172.052L203.979 170.952ZM217.356 173.144C217.754 173.103 218.137 173.024 218.503 172.906C218.877 172.787 219.246 172.649 219.608 172.491L219.886 175.204C219.513 175.419 219.042 175.613 218.472 175.784C217.91 175.962 217.287 176.086 216.602 176.156C215.805 176.238 215.075 176.184 214.411 175.994C213.755 175.796 213.21 175.397 212.779 174.797C212.354 174.188 212.083 173.31 211.965 172.163L211.305 165.72L209.56 165.899L209.402 164.357L211.285 162.932L212.048 160.004L214.379 159.765L214.67 162.61L218.411 162.226L218.692 164.964L214.951 165.347L215.611 171.789C215.663 172.299 215.846 172.667 216.159 172.893C216.479 173.109 216.878 173.193 217.356 173.144ZM224.913 161.56L226.283 174.923L222.637 175.297L221.268 161.934L224.913 161.56ZM222.56 156.511C223.102 156.456 223.581 156.536 223.998 156.75C224.414 156.958 224.657 157.404 224.727 158.089C224.796 158.766 224.649 159.256 224.286 159.559C223.921 159.854 223.468 160.03 222.926 160.085C222.377 160.141 221.893 160.062 221.477 159.847C221.067 159.623 220.828 159.173 220.759 158.495C220.688 157.81 220.832 157.324 221.189 157.038C221.553 156.743 222.01 156.568 222.56 156.511ZM241.576 166.58C241.69 167.696 241.64 168.7 241.425 169.591C241.219 170.482 240.859 171.255 240.347 171.912C239.841 172.559 239.202 173.076 238.428 173.461C237.662 173.846 236.777 174.089 235.773 174.192C234.833 174.288 233.953 174.226 233.133 174.004C232.321 173.781 231.594 173.405 230.952 172.874C230.317 172.336 229.796 171.652 229.389 170.824C228.99 169.996 228.734 169.023 228.619 167.908C228.468 166.426 228.602 165.144 229.022 164.062C229.443 162.98 230.112 162.123 231.03 161.489C231.947 160.856 233.079 160.47 234.426 160.332C235.677 160.204 236.812 160.357 237.83 160.792C238.857 161.227 239.698 161.93 240.353 162.901C241.016 163.872 241.424 165.098 241.576 166.58ZM232.337 167.527C232.426 168.404 232.598 169.131 232.85 169.709C233.102 170.287 233.447 170.706 233.885 170.968C234.322 171.229 234.868 171.326 235.521 171.259C236.166 171.193 236.673 170.988 237.04 170.644C237.416 170.3 237.664 169.819 237.786 169.203C237.916 168.586 237.936 167.839 237.847 166.962C237.756 166.078 237.585 165.355 237.334 164.793C237.091 164.222 236.751 163.81 236.314 163.557C235.877 163.303 235.332 163.21 234.679 163.277C233.715 163.376 233.048 163.779 232.677 164.485C232.315 165.19 232.201 166.204 232.337 167.527ZM251.47 158.586C252.896 158.44 254.083 158.712 255.032 159.404C255.98 160.088 256.541 161.287 256.717 163L257.61 171.713L253.964 172.087L253.164 164.282C253.066 163.326 252.817 162.623 252.417 162.172C252.024 161.721 251.458 161.534 250.717 161.61C249.601 161.724 248.879 162.181 248.55 162.979C248.221 163.778 248.13 164.89 248.276 166.317L248.92 172.604L245.275 172.977L243.906 159.614L246.691 159.329L247.356 160.988L247.559 160.967C247.798 160.476 248.115 160.065 248.508 159.735C248.908 159.404 249.361 159.144 249.865 158.955C250.377 158.766 250.912 158.643 251.47 158.586Z" fill="white"/>
<rect x="45.1875" y="119.843" width="261.559" height="92.5025" transform="rotate(-5.85015 45.1875 119.843)" stroke="black" stroke-width="2.27839"/>
<path d="M115.398 217.347H116.893L119.703 224.843L122.506 217.347H124.002L120.29 227.066H119.102L115.398 217.347ZM114.717 217.347H116.139L116.385 223.835V227.066H114.717V217.347ZM123.261 217.347H124.689V227.066H123.014V223.835L123.261 217.347ZM126.355 223.535V223.381C126.355 222.861 126.43 222.378 126.582 221.933C126.733 221.484 126.951 221.094 127.236 220.765C127.525 220.431 127.876 220.173 128.29 219.991C128.709 219.804 129.18 219.71 129.705 219.71C130.235 219.71 130.707 219.804 131.12 219.991C131.539 220.173 131.893 220.431 132.182 220.765C132.471 221.094 132.691 221.484 132.843 221.933C132.994 222.378 133.07 222.861 133.07 223.381V223.535C133.07 224.056 132.994 224.538 132.843 224.983C132.691 225.428 132.471 225.818 132.182 226.152C131.893 226.481 131.541 226.739 131.127 226.926C130.713 227.108 130.244 227.2 129.719 227.2C129.189 227.2 128.715 227.108 128.297 226.926C127.883 226.739 127.532 226.481 127.242 226.152C126.953 225.818 126.733 225.428 126.582 224.983C126.43 224.538 126.355 224.056 126.355 223.535ZM127.963 223.381V223.535C127.963 223.86 127.997 224.167 128.063 224.456C128.13 224.745 128.235 224.999 128.377 225.217C128.519 225.435 128.702 225.606 128.924 225.731C129.147 225.856 129.412 225.918 129.719 225.918C130.017 225.918 130.275 225.856 130.493 225.731C130.716 225.606 130.898 225.435 131.04 225.217C131.183 224.999 131.287 224.745 131.354 224.456C131.425 224.167 131.461 223.86 131.461 223.535V223.381C131.461 223.061 131.425 222.758 131.354 222.474C131.287 222.184 131.181 221.929 131.034 221.706C130.891 221.484 130.709 221.31 130.486 221.185C130.268 221.056 130.008 220.992 129.705 220.992C129.403 220.992 129.14 221.056 128.918 221.185C128.7 221.31 128.519 221.484 128.377 221.706C128.235 221.929 128.13 222.184 128.063 222.474C127.997 222.758 127.963 223.061 127.963 223.381ZM137.872 219.844V221.019H133.8V219.844H137.872ZM134.975 218.075H136.584V225.07C136.584 225.293 136.615 225.464 136.677 225.584C136.744 225.7 136.835 225.778 136.951 225.818C137.067 225.858 137.203 225.878 137.358 225.878C137.469 225.878 137.576 225.871 137.679 225.858C137.781 225.845 137.863 225.831 137.926 225.818L137.932 227.046C137.799 227.086 137.643 227.122 137.465 227.153C137.292 227.184 137.091 227.2 136.864 227.2C136.495 227.2 136.168 227.135 135.883 227.006C135.598 226.872 135.376 226.657 135.216 226.358C135.055 226.06 134.975 225.664 134.975 225.17V218.075ZM140.979 219.844V227.066H139.364V219.844H140.979ZM139.257 217.948C139.257 217.703 139.337 217.501 139.498 217.341C139.662 217.176 139.889 217.094 140.178 217.094C140.463 217.094 140.688 217.176 140.853 217.341C141.017 217.501 141.1 217.703 141.1 217.948C141.1 218.188 141.017 218.389 140.853 218.549C140.688 218.709 140.463 218.789 140.178 218.789C139.889 218.789 139.662 218.709 139.498 218.549C139.337 218.389 139.257 218.188 139.257 217.948ZM142.578 223.535V223.381C142.578 222.861 142.654 222.378 142.805 221.933C142.956 221.484 143.174 221.094 143.459 220.765C143.748 220.431 144.1 220.173 144.514 219.991C144.932 219.804 145.404 219.71 145.929 219.71C146.458 219.71 146.93 219.804 147.344 219.991C147.762 220.173 148.116 220.431 148.405 220.765C148.695 221.094 148.915 221.484 149.066 221.933C149.217 222.378 149.293 222.861 149.293 223.381V223.535C149.293 224.056 149.217 224.538 149.066 224.983C148.915 225.428 148.695 225.818 148.405 226.152C148.116 226.481 147.765 226.739 147.351 226.926C146.937 227.108 146.467 227.2 145.942 227.2C145.413 227.2 144.939 227.108 144.521 226.926C144.107 226.739 143.755 226.481 143.466 226.152C143.177 225.818 142.956 225.428 142.805 224.983C142.654 224.538 142.578 224.056 142.578 223.535ZM144.187 223.381V223.535C144.187 223.86 144.22 224.167 144.287 224.456C144.354 224.745 144.458 224.999 144.601 225.217C144.743 225.435 144.925 225.606 145.148 225.731C145.37 225.856 145.635 225.918 145.942 225.918C146.24 225.918 146.499 225.856 146.717 225.731C146.939 225.606 147.122 225.435 147.264 225.217C147.406 224.999 147.511 224.745 147.578 224.456C147.649 224.167 147.684 223.86 147.684 223.535V223.381C147.684 223.061 147.649 222.758 147.578 222.474C147.511 222.184 147.404 221.929 147.257 221.706C147.115 221.484 146.932 221.31 146.71 221.185C146.492 221.056 146.232 220.992 145.929 220.992C145.626 220.992 145.364 221.056 145.141 221.185C144.923 221.31 144.743 221.484 144.601 221.706C144.458 221.929 144.354 222.184 144.287 222.474C144.22 222.758 144.187 223.061 144.187 223.381ZM152.38 221.386V227.066H150.772V219.844H152.287L152.38 221.386ZM152.093 223.188L151.573 223.181C151.577 222.669 151.648 222.2 151.786 221.773C151.929 221.346 152.124 220.978 152.374 220.671C152.627 220.364 152.93 220.129 153.281 219.964C153.633 219.795 154.025 219.71 154.456 219.71C154.803 219.71 155.117 219.759 155.397 219.857C155.682 219.951 155.925 220.104 156.125 220.318C156.33 220.531 156.485 220.809 156.592 221.152C156.699 221.49 156.752 221.906 156.752 222.4V227.066H155.137V222.394C155.137 222.046 155.086 221.773 154.984 221.573C154.886 221.368 154.741 221.223 154.55 221.139C154.363 221.05 154.129 221.005 153.849 221.005C153.573 221.005 153.326 221.063 153.108 221.179C152.89 221.294 152.705 221.452 152.554 221.653C152.407 221.853 152.294 222.084 152.213 222.347C152.133 222.609 152.093 222.89 152.093 223.188ZM164.262 227.066H162.653V219.15C162.653 218.611 162.753 218.159 162.954 217.795C163.158 217.425 163.45 217.147 163.828 216.96C164.206 216.769 164.653 216.673 165.17 216.673C165.33 216.673 165.488 216.684 165.644 216.707C165.799 216.724 165.951 216.753 166.097 216.793L166.057 218.035C165.968 218.013 165.87 217.997 165.764 217.988C165.661 217.979 165.55 217.975 165.43 217.975C165.185 217.975 164.974 218.021 164.796 218.115C164.622 218.204 164.489 218.335 164.395 218.509C164.306 218.682 164.262 218.896 164.262 219.15V227.066ZM165.75 219.844V221.019H161.545V219.844H165.75ZM166.755 223.535V223.381C166.755 222.861 166.831 222.378 166.982 221.933C167.133 221.484 167.351 221.094 167.636 220.765C167.925 220.431 168.277 220.173 168.691 219.991C169.109 219.804 169.581 219.71 170.106 219.71C170.635 219.71 171.107 219.804 171.521 219.991C171.939 220.173 172.293 220.431 172.582 220.765C172.871 221.094 173.092 221.484 173.243 221.933C173.394 222.378 173.47 222.861 173.47 223.381V223.535C173.47 224.056 173.394 224.538 173.243 224.983C173.092 225.428 172.871 225.818 172.582 226.152C172.293 226.481 171.941 226.739 171.528 226.926C171.114 227.108 170.644 227.2 170.119 227.2C169.59 227.2 169.116 227.108 168.697 226.926C168.283 226.739 167.932 226.481 167.643 226.152C167.353 225.818 167.133 225.428 166.982 224.983C166.831 224.538 166.755 224.056 166.755 223.535ZM168.364 223.381V223.535C168.364 223.86 168.397 224.167 168.464 224.456C168.53 224.745 168.635 224.999 168.777 225.217C168.92 225.435 169.102 225.606 169.325 225.731C169.547 225.856 169.812 225.918 170.119 225.918C170.417 225.918 170.675 225.856 170.893 225.731C171.116 225.606 171.298 225.435 171.441 225.217C171.583 224.999 171.688 224.745 171.754 224.456C171.826 224.167 171.861 223.86 171.861 223.535V223.381C171.861 223.061 171.826 222.758 171.754 222.474C171.688 222.184 171.581 221.929 171.434 221.706C171.292 221.484 171.109 221.31 170.887 221.185C170.669 221.056 170.408 220.992 170.106 220.992C169.803 220.992 169.541 221.056 169.318 221.185C169.1 221.31 168.92 221.484 168.777 221.706C168.635 221.929 168.53 222.184 168.464 222.474C168.397 222.758 168.364 223.061 168.364 223.381ZM176.577 221.219V227.066H174.968V219.844H176.504L176.577 221.219ZM178.787 219.797L178.773 221.292C178.675 221.274 178.569 221.261 178.453 221.252C178.342 221.243 178.23 221.239 178.119 221.239C177.843 221.239 177.601 221.279 177.392 221.359C177.182 221.435 177.007 221.546 176.864 221.693C176.726 221.835 176.619 222.009 176.544 222.213C176.468 222.418 176.424 222.647 176.41 222.901L176.043 222.928C176.043 222.474 176.088 222.053 176.177 221.666C176.266 221.279 176.399 220.938 176.577 220.645C176.76 220.351 176.987 220.122 177.258 219.957C177.534 219.793 177.852 219.71 178.213 219.71C178.31 219.71 178.415 219.719 178.526 219.737C178.642 219.755 178.729 219.775 178.787 219.797ZM190.007 225.738V227.066H184.847V225.738H190.007ZM185.321 217.347V227.066H183.646V217.347H185.321ZM189.333 221.406V222.714H184.847V221.406H189.333ZM189.974 217.347V218.682H184.847V217.347H189.974ZM192.968 221.312V227.066H191.359V219.844H192.874L192.968 221.312ZM192.707 223.188L192.16 223.181C192.16 222.683 192.222 222.222 192.347 221.799C192.471 221.377 192.654 221.01 192.894 220.698C193.134 220.382 193.433 220.14 193.789 219.971C194.149 219.797 194.565 219.71 195.037 219.71C195.366 219.71 195.667 219.759 195.938 219.857C196.214 219.951 196.452 220.1 196.652 220.304C196.857 220.509 197.013 220.772 197.119 221.092C197.231 221.412 197.286 221.799 197.286 222.253V227.066H195.678V222.394C195.678 222.042 195.624 221.766 195.517 221.566C195.415 221.366 195.266 221.223 195.07 221.139C194.879 221.05 194.65 221.005 194.383 221.005C194.08 221.005 193.822 221.063 193.608 221.179C193.399 221.294 193.228 221.452 193.094 221.653C192.961 221.853 192.863 222.084 192.801 222.347C192.738 222.609 192.707 222.89 192.707 223.188ZM197.186 222.761L196.432 222.928C196.432 222.491 196.492 222.08 196.612 221.693C196.737 221.301 196.917 220.958 197.153 220.665C197.393 220.367 197.689 220.133 198.041 219.964C198.392 219.795 198.795 219.71 199.249 219.71C199.618 219.71 199.947 219.761 200.237 219.864C200.53 219.962 200.78 220.117 200.984 220.331C201.189 220.545 201.345 220.823 201.451 221.165C201.558 221.504 201.612 221.913 201.612 222.394V227.066H199.996V222.387C199.996 222.022 199.943 221.739 199.836 221.539C199.734 221.339 199.587 221.201 199.396 221.125C199.204 221.045 198.975 221.005 198.708 221.005C198.459 221.005 198.239 221.052 198.047 221.145C197.86 221.234 197.702 221.361 197.573 221.526C197.444 221.686 197.346 221.871 197.28 222.08C197.217 222.289 197.186 222.516 197.186 222.761ZM203.104 223.535V223.381C203.104 222.861 203.179 222.378 203.33 221.933C203.482 221.484 203.7 221.094 203.985 220.765C204.274 220.431 204.625 220.173 205.039 219.991C205.458 219.804 205.929 219.71 206.454 219.71C206.984 219.71 207.456 219.804 207.869 219.991C208.288 220.173 208.642 220.431 208.931 220.765C209.22 221.094 209.44 221.484 209.592 221.933C209.743 222.378 209.819 222.861 209.819 223.381V223.535C209.819 224.056 209.743 224.538 209.592 224.983C209.44 225.428 209.22 225.818 208.931 226.152C208.642 226.481 208.29 226.739 207.876 226.926C207.462 227.108 206.993 227.2 206.468 227.2C205.938 227.2 205.464 227.108 205.046 226.926C204.632 226.739 204.281 226.481 203.991 226.152C203.702 225.818 203.482 225.428 203.33 224.983C203.179 224.538 203.104 224.056 203.104 223.535ZM204.712 223.381V223.535C204.712 223.86 204.746 224.167 204.812 224.456C204.879 224.745 204.984 224.999 205.126 225.217C205.268 225.435 205.451 225.606 205.673 225.731C205.896 225.856 206.161 225.918 206.468 225.918C206.766 225.918 207.024 225.856 207.242 225.731C207.465 225.606 207.647 225.435 207.789 225.217C207.932 224.999 208.036 224.745 208.103 224.456C208.174 224.167 208.21 223.86 208.21 223.535V223.381C208.21 223.061 208.174 222.758 208.103 222.474C208.036 222.184 207.93 221.929 207.783 221.706C207.64 221.484 207.458 221.31 207.235 221.185C207.017 221.056 206.757 220.992 206.454 220.992C206.152 220.992 205.889 221.056 205.667 221.185C205.449 221.31 205.268 221.484 205.126 221.706C204.984 221.929 204.879 222.184 204.812 222.474C204.746 222.758 204.712 223.061 204.712 223.381ZM214.621 219.844V221.019H210.549V219.844H214.621ZM211.724 218.075H213.333V225.07C213.333 225.293 213.364 225.464 213.426 225.584C213.493 225.7 213.584 225.778 213.7 225.818C213.816 225.858 213.951 225.878 214.107 225.878C214.218 225.878 214.325 225.871 214.428 225.858C214.53 225.845 214.612 225.831 214.675 225.818L214.681 227.046C214.548 227.086 214.392 227.122 214.214 227.153C214.04 227.184 213.84 227.2 213.613 227.2C213.244 227.2 212.917 227.135 212.632 227.006C212.347 226.872 212.125 226.657 211.965 226.358C211.804 226.06 211.724 225.664 211.724 225.17V218.075ZM217.728 219.844V227.066H216.113V219.844H217.728ZM216.006 217.948C216.006 217.703 216.086 217.501 216.247 217.341C216.411 217.176 216.638 217.094 216.927 217.094C217.212 217.094 217.437 217.176 217.602 217.341C217.766 217.501 217.849 217.703 217.849 217.948C217.849 218.188 217.766 218.389 217.602 218.549C217.437 218.709 217.212 218.789 216.927 218.789C216.638 218.789 216.411 218.709 216.247 218.549C216.086 218.389 216.006 218.188 216.006 217.948ZM219.327 223.535V223.381C219.327 222.861 219.403 222.378 219.554 221.933C219.705 221.484 219.923 221.094 220.208 220.765C220.497 220.431 220.849 220.173 221.263 219.991C221.681 219.804 222.153 219.71 222.678 219.71C223.207 219.71 223.679 219.804 224.093 219.991C224.511 220.173 224.865 220.431 225.154 220.765C225.444 221.094 225.664 221.484 225.815 221.933C225.966 222.378 226.042 222.861 226.042 223.381V223.535C226.042 224.056 225.966 224.538 225.815 224.983C225.664 225.428 225.444 225.818 225.154 226.152C224.865 226.481 224.514 226.739 224.1 226.926C223.686 227.108 223.216 227.2 222.691 227.2C222.162 227.2 221.688 227.108 221.27 226.926C220.856 226.739 220.504 226.481 220.215 226.152C219.926 225.818 219.705 225.428 219.554 224.983C219.403 224.538 219.327 224.056 219.327 223.535ZM220.936 223.381V223.535C220.936 223.86 220.969 224.167 221.036 224.456C221.103 224.745 221.207 224.999 221.35 225.217C221.492 225.435 221.674 225.606 221.897 225.731C222.119 225.856 222.384 225.918 222.691 225.918C222.989 225.918 223.248 225.856 223.466 225.731C223.688 225.606 223.871 225.435 224.013 225.217C224.155 224.999 224.26 224.745 224.327 224.456C224.398 224.167 224.433 223.86 224.433 223.535V223.381C224.433 223.061 224.398 222.758 224.327 222.474C224.26 222.184 224.153 221.929 224.006 221.706C223.864 221.484 223.681 221.31 223.459 221.185C223.241 221.056 222.981 220.992 222.678 220.992C222.375 220.992 222.113 221.056 221.89 221.185C221.672 221.31 221.492 221.484 221.35 221.706C221.207 221.929 221.103 222.184 221.036 222.474C220.969 222.758 220.936 223.061 220.936 223.381ZM229.129 221.386V227.066H227.521V219.844H229.036L229.129 221.386ZM228.842 223.188L228.322 223.181C228.326 222.669 228.397 222.2 228.535 221.773C228.678 221.346 228.873 220.978 229.123 220.671C229.376 220.364 229.679 220.129 230.03 219.964C230.382 219.795 230.774 219.71 231.205 219.71C231.552 219.71 231.866 219.759 232.146 219.857C232.431 219.951 232.674 220.104 232.874 220.318C233.079 220.531 233.234 220.809 233.341 221.152C233.448 221.49 233.501 221.906 233.501 222.4V227.066H231.886V222.394C231.886 222.046 231.835 221.773 231.733 221.573C231.635 221.368 231.49 221.223 231.299 221.139C231.112 221.05 230.878 221.005 230.598 221.005C230.322 221.005 230.075 221.063 229.857 221.179C229.639 221.294 229.454 221.452 229.303 221.653C229.156 221.853 229.043 222.084 228.962 222.347C228.882 222.609 228.842 222.89 228.842 223.188ZM238.293 225.946C238.293 225.603 238.414 225.316 238.656 225.084C238.903 224.852 239.223 224.736 239.617 224.736C240.015 224.736 240.333 224.852 240.57 225.084C240.812 225.316 240.933 225.603 240.933 225.946C240.933 226.284 240.812 226.569 240.57 226.801C240.333 227.033 240.015 227.149 239.617 227.149C239.223 227.149 238.903 227.033 238.656 226.801C238.414 226.569 238.293 226.284 238.293 225.946ZM238.293 219.804C238.293 219.461 238.414 219.173 238.656 218.941C238.903 218.709 239.223 218.593 239.617 218.593C240.015 218.593 240.333 218.709 240.57 218.941C240.812 219.173 240.933 219.461 240.933 219.804C240.933 220.142 240.812 220.427 240.57 220.659C240.333 220.891 240.015 221.007 239.617 221.007C239.223 221.007 238.903 220.891 238.656 220.659C238.414 220.427 238.293 220.142 238.293 219.804ZM246.012 222.588V222.777C246.012 223.79 245.898 224.726 245.671 225.583C245.444 226.441 245.142 227.202 244.763 227.868C244.385 228.534 243.964 229.088 243.5 229.532C243.041 229.981 242.58 230.301 242.116 230.493L241.654 229.305C241.937 229.093 242.214 228.806 242.486 228.443C242.759 228.08 243.003 227.631 243.22 227.096C243.442 226.567 243.616 225.946 243.742 225.235C243.873 224.524 243.939 223.71 243.939 222.792V222.572C243.939 221.655 243.873 220.84 243.742 220.129C243.611 219.418 243.434 218.798 243.212 218.268C242.996 217.733 242.751 217.285 242.479 216.921C242.206 216.558 241.931 216.271 241.654 216.059L242.116 214.871C242.58 215.058 243.041 215.376 243.5 215.825C243.964 216.273 244.385 216.831 244.763 217.496C245.142 218.162 245.444 218.926 245.671 219.789C245.898 220.646 246.012 221.579 246.012 222.588Z" fill="#FBE51D"/>
<path d="M304.065 49.5817L307.788 59.6435L317.85 63.3668L307.788 67.09L304.065 77.1518L300.341 67.09L290.28 63.3668L300.341 59.6435L304.065 49.5817Z" fill="#FBE51D"/>
<path d="M326.036 68.1703L327.041 75.2518L333.072 79.0983L325.99 80.1034L322.143 86.1335L321.138 79.052L315.108 75.2054L322.19 74.2003L326.036 68.1703Z" fill="#FFC233"/>
</g>
<defs>
<clipPath id="clip0_12_65">
<rect width="360" height="319" fill="white"/>
</clipPath>
</defs>
</svg>
